<?xml version="1.0" encoding="utf-8"?>
<!-- Generator: Adobe Illustrator 17.0.0, SVG Export Plug-In . SVG Version: 6.00 Build 0)  -->
<!DOCTYPE svg PUBLIC "-//W3C//DTD SVG 1.1//EN" "http://www.w3.org/Graphics/SVG/1.1/DTD/svg11.dtd">
<svg version="1.1" id="Layer_1" xmlns="http://www.w3.org/2000/svg" xmlns:xlink="http://www.w3.org/1999/xlink" x="0px" y="0px"
	 width="64px" height="64px" viewBox="0 0 64 64" enable-background="new 0 0 64 64" xml:space="preserve">
<g>
	<path d="M28.068,27.86c0-1.9-1.293-1.9-1.293-1.9h-0.685h-4.634h-0.002v4.078h4.991C27.308,30.038,28.068,29.763,28.068,27.86z"/>
	<path d="M40.394,30.038c-2.822,0-3.215,2.816-3.215,2.816h6.003C43.182,32.854,43.219,30.038,40.394,30.038z"/>
	<path d="M26.775,32.854h-5.318v4.884h4.711c0.08,0,0.198,0.004,0.339,0c0.757-0.017,2.196-0.235,2.196-2.374
		C28.703,32.83,26.775,32.854,26.775,32.854z"/>
	<path d="M32,7.174C18.311,7.174,7.174,18.311,7.174,32c0,13.689,11.137,24.826,24.826,24.826c13.689,0,24.826-11.137,24.826-24.826
		C56.826,18.311,45.689,7.174,32,7.174z M36.392,23.789h7.54v2.251h-7.54V23.789z M32.581,35.593c0,5.577-5.806,5.394-5.806,5.394
		h-5.318h-0.156h-4.034V22.712h4.034h0.156h5.318c2.891,0,5.172,1.597,5.172,4.867c0,3.269-2.788,3.477-2.788,3.477
		C32.834,31.056,32.581,35.593,32.581,35.593z M46.685,35.293h-9.47c0,3.396,3.216,3.181,3.216,3.181c3.037,0,2.93-1.965,2.93-1.965
		h3.218c0,5.217-6.254,4.859-6.254,4.859c-7.503,0-7.021-6.985-7.021-6.985s-0.006-7.022,7.021-7.022
		C47.722,27.361,46.684,35.293,46.685,35.293z"/>
</g>
</svg>
