<?xml version="1.0" encoding="utf-8"?>
<!-- Generator: Adobe Illustrator 17.0.0, SVG Export Plug-In . SVG Version: 6.00 Build 0)  -->
<!DOCTYPE svg PUBLIC "-//W3C//DTD SVG 1.1//EN" "http://www.w3.org/Graphics/SVG/1.1/DTD/svg11.dtd">
<svg version="1.1" id="Layer_1" xmlns="http://www.w3.org/2000/svg" xmlns:xlink="http://www.w3.org/1999/xlink" x="0px" y="0px"
	 width="64px" height="64px" viewBox="0 0 64 64" enable-background="new 0 0 64 64" xml:space="preserve">
<g>
	<path fill-rule="evenodd" clip-rule="evenodd" d="M32.021,22.825c-5.885,0-10.658,4.771-10.658,10.656
		c0,5.885,4.773,10.656,10.658,10.656c5.885,0,10.658-4.771,10.658-10.656C42.68,27.596,37.906,22.825,32.021,22.825z
		 M32.021,39.376c-3.307,0-5.986-2.676-5.986-5.984c0-3.307,2.68-5.983,5.986-5.983c3.307,0,5.986,2.677,5.986,5.983
		C38.008,36.7,35.328,39.376,32.021,39.376z"/>
	<path fill-rule="evenodd" clip-rule="evenodd" d="M48,15.481h-5.451l-2.072-2.255c-0.358-0.391-1.06-0.707-1.567-0.707H25.133
		c-0.508,0-1.21,0.316-1.567,0.707l-2.071,2.255h-3.967v-1.295c0-0.368-0.298-0.667-0.667-0.667h-4.172
		c-0.369,0-0.667,0.299-0.667,0.667v1.295H10c-1.105,0-2,0.896-2,2v2v28c0,2.209,1.791,4,4,4h40c2.209,0,4-1.791,4-4v-24
		C56,19.063,52.418,15.481,48,15.481z M51,46.481H13v-26h35c1.654,0,3,1.346,3,3V46.481z"/>
	<circle fill-rule="evenodd" clip-rule="evenodd" cx="17.527" cy="24.874" r="1.982"/>
	<circle fill-rule="evenodd" clip-rule="evenodd" cx="32.021" cy="33.392" r="2.985"/>
</g>
</svg>
