<?xml version="1.0" encoding="utf-8"?>
<!-- Generator: Adobe Illustrator 17.0.0, SVG Export Plug-In . SVG Version: 6.00 Build 0)  -->
<!DOCTYPE svg PUBLIC "-//W3C//DTD SVG 1.1//EN" "http://www.w3.org/Graphics/SVG/1.1/DTD/svg11.dtd">
<svg version="1.1" id="Layer_1" xmlns="http://www.w3.org/2000/svg" xmlns:xlink="http://www.w3.org/1999/xlink" x="0px" y="0px"
	 width="64px" height="64px" viewBox="0 0 64 64" enable-background="new 0 0 64 64" xml:space="preserve">
<g>
	<circle cx="32" cy="31.999" r="3.529"/>
	<path d="M49.555,14.445C44.866,9.756,38.632,7.174,32,7.174c-6.631,0-12.866,2.583-17.555,7.271c-9.68,9.68-9.68,25.43,0,35.109
		c4.689,4.689,10.923,7.271,17.555,7.271c6.632,0,12.866-2.582,17.555-7.271C59.235,39.875,59.235,24.125,49.555,14.445z
		 M32.034,52.176l0.039-12.587c-1.967,0.019-3.941-0.719-5.442-2.22c-2.965-2.964-2.964-7.772,0-10.737
		c0.022-0.022,0.047-0.04,0.069-0.062l-8.935-8.936c4.059-4.072,9.234-6.027,14.363-5.91l-0.039,12.689
		c1.913,0.022,3.819,0.759,5.279,2.219c2.943,2.942,2.96,7.699,0.063,10.668l8.967,8.967C42.339,50.338,37.164,52.293,32.034,52.176
		z"/>
</g>
</svg>
