<?xml version="1.0" encoding="utf-8"?>
<!-- Generator: Adobe Illustrator 17.0.0, SVG Export Plug-In . SVG Version: 6.00 Build 0)  -->
<!DOCTYPE svg PUBLIC "-//W3C//DTD SVG 1.1//EN" "http://www.w3.org/Graphics/SVG/1.1/DTD/svg11.dtd">
<svg version="1.1" id="Layer_1" xmlns="http://www.w3.org/2000/svg" xmlns:xlink="http://www.w3.org/1999/xlink" x="0px" y="0px"
	 width="64px" height="64px" viewBox="0 0 64 64" enable-background="new 0 0 64 64" xml:space="preserve">
<path d="M44.773,32.579l9.503-9.503l-9.503-9.504H32V8.974c0-0.578-0.473-1.051-1.051-1.051h-3.785
	c-0.578,0-1.051,0.473-1.051,1.051v4.599h-15.89c-0.276,0-0.5,0.224-0.5,0.5v18.007c0,0.276,0.224,0.5,0.5,0.5h15.89v3.729h-5.879
	l-4.752,4.752l4.752,4.752h5.879v9.214c0,0.578,0.473,1.051,1.051,1.051h3.785c0.578,0,1.051-0.473,1.051-1.051v-9.214h7.259
	c0.276,0,0.5-0.224,0.5-0.5v-8.504c0-0.276-0.224-0.5-0.5-0.5H32v-3.729H44.773z"/>
</svg>
