<?xml version="1.0" encoding="utf-8"?>
<!-- Generator: Adobe Illustrator 17.0.0, SVG Export Plug-In . SVG Version: 6.00 Build 0)  -->
<!DOCTYPE svg PUBLIC "-//W3C//DTD SVG 1.1//EN" "http://www.w3.org/Graphics/SVG/1.1/DTD/svg11.dtd">
<svg version="1.1" id="Layer_1" xmlns="http://www.w3.org/2000/svg" xmlns:xlink="http://www.w3.org/1999/xlink" x="0px" y="0px"
	 width="64px" height="64px" viewBox="0 0 64 64" enable-background="new 0 0 64 64" xml:space="preserve">
<g>
	<rect x="21.685" y="20.033" width="20.621" height="3"/>
	<rect x="21.685" y="27.223" width="20.621" height="3"/>
	<path d="M51.015,7.999h-38c-0.553,0-1,0.447-1,1v33.323c-0.011,0.096-0.029,0.191-0.029,0.29c0,4.912,3.681,8.972,8.428,9.589
		l-0.029,0.022l29.631,3.778c1.104,0,2-0.895,2-2V8.999C52.015,8.446,51.567,7.999,51.015,7.999z M47.015,50.206l-19.84-11.635
		c-0.466-0.296-0.844-0.089-0.844,0.464v3.422v-0.014c-0.004,0.057,0,0.111,0,0.169c0,2.58-2.087,4.679-4.667,4.679
		s-4.649-1.928-4.649-4.508c0-0.091,0.009-0.22,0-0.308v-0.128V12.999h30V50.206z"/>
</g>
</svg>
