<?xml version="1.0" encoding="utf-8"?>
<!-- Generator: Adobe Illustrator 17.0.0, SVG Export Plug-In . SVG Version: 6.00 Build 0)  -->
<!DOCTYPE svg PUBLIC "-//W3C//DTD SVG 1.1//EN" "http://www.w3.org/Graphics/SVG/1.1/DTD/svg11.dtd">
<svg version="1.1" id="Layer_1" xmlns="http://www.w3.org/2000/svg" xmlns:xlink="http://www.w3.org/1999/xlink" x="0px" y="0px"
	 width="64px" height="64px" viewBox="0 0 64 64" enable-background="new 0 0 64 64" xml:space="preserve">
<g>
	<path d="M31.263,27.628c-2.305-4.097-4.769-7.435-4.945-7.674c-3.714,1.755-6.485,5.176-7.351,9.301
		C19.318,29.261,24.868,29.327,31.263,27.628z"/>
	<path d="M28.81,19.068c-0.014,0.006-0.028,0.009-0.042,0.012c0.025-0.005,0.04-0.009,0.04-0.009L28.81,19.068z"/>
	<path d="M40.796,22.005c-2.347-2.066-5.423-3.322-8.796-3.322c-1.082,0-2.132,0.132-3.139,0.375c0.2,0.264,2.701,3.587,4.979,7.771
		C38.866,24.943,40.763,22.057,40.796,22.005z"/>
	<path d="M34.267,34.18c-7.863,2.74-10.426,8.265-10.449,8.315c2.258,1.764,5.095,2.825,8.182,2.825c1.845,0,3.602-0.376,5.2-1.056
		c-0.197-1.164-0.971-5.243-2.845-10.112C34.325,34.16,34.296,34.169,34.267,34.18z"/>
	<path d="M32.922,32.104c0.174-0.057,0.349-0.11,0.524-0.159c-0.333-0.759-0.698-1.517-1.081-2.265
		c-6.856,2.053-13.438,1.902-13.672,1.898c-0.005,0.14-0.011,0.278-0.011,0.42c0,3.422,1.291,6.541,3.411,8.902l-0.005-0.007
		C22.089,40.894,25.734,34.427,32.922,32.104z"/>
	<path d="M32,7.174C18.311,7.174,7.174,18.311,7.174,32c0,13.689,11.137,24.826,24.826,24.826c13.689,0,24.826-11.137,24.826-24.826
		C56.826,18.311,45.689,7.174,32,7.174z M47.277,35.142c-0.205,1.002-0.512,1.988-0.909,2.93c-0.391,0.924-0.875,1.817-1.438,2.65
		c-0.558,0.825-1.199,1.601-1.903,2.307c-0.705,0.705-1.48,1.344-2.307,1.902c-0.833,0.563-1.726,1.047-2.649,1.438
		c-0.942,0.398-1.928,0.704-2.931,0.91c-1.026,0.211-2.083,0.317-3.14,0.317c-1.058,0-2.113-0.106-3.141-0.317
		c-1.002-0.206-1.989-0.511-2.931-0.91c-0.925-0.391-1.816-0.874-2.65-1.438c-0.825-0.559-1.602-1.197-2.306-1.902
		c-0.706-0.706-1.346-1.48-1.903-2.307c-0.563-0.833-1.047-1.727-1.438-2.65c-0.397-0.941-0.705-1.928-0.91-2.93
		c-0.21-1.026-0.316-2.083-0.316-3.143c0-1.057,0.106-2.113,0.316-3.139c0.205-1.002,0.512-1.988,0.911-2.932
		c0.391-0.925,0.874-1.815,1.436-2.648c0.559-0.825,1.198-1.602,1.903-2.307c0.705-0.706,1.48-1.346,2.307-1.904
		c0.834-0.563,1.726-1.046,2.649-1.438c0.942-0.396,1.93-0.705,2.931-0.908c1.028-0.211,2.084-0.318,3.141-0.318
		c1.057,0,2.114,0.107,3.141,0.318c1.002,0.203,1.988,0.511,2.931,0.908c0.925,0.392,1.816,0.873,2.649,1.438
		c0.825,0.559,1.602,1.199,2.307,1.904c0.705,0.705,1.345,1.481,1.903,2.307c0.563,0.833,1.047,1.724,1.438,2.648
		c0.397,0.943,0.705,1.93,0.909,2.932c0.211,1.025,0.317,2.082,0.317,3.139C47.594,33.058,47.488,34.114,47.277,35.142z"/>
	<path d="M36.85,33.534c1.747,4.8,2.457,8.709,2.592,9.514c2.991-2.02,5.115-5.222,5.708-8.933
		C44.875,34.024,41.148,32.847,36.85,33.534z"/>
	<path d="M34.864,28.811c0.311,0.635,0.609,1.28,0.886,1.932c0.099,0.23,0.193,0.46,0.287,0.688
		c4.576-0.574,9.084,0.396,9.276,0.437c-0.03-3.161-1.16-6.059-3.028-8.326C42.261,23.577,40.125,26.665,34.864,28.811z"/>
</g>
</svg>
