<?xml version="1.0" encoding="utf-8"?>
<!-- Generator: Adobe Illustrator 17.0.0, SVG Export Plug-In . SVG Version: 6.00 Build 0)  -->
<!DOCTYPE svg PUBLIC "-//W3C//DTD SVG 1.1//EN" "http://www.w3.org/Graphics/SVG/1.1/DTD/svg11.dtd">
<svg version="1.1" id="Layer_1" xmlns="http://www.w3.org/2000/svg" xmlns:xlink="http://www.w3.org/1999/xlink" x="0px" y="0px"
	 width="64px" height="64px" viewBox="0 0 64 64" enable-background="new 0 0 64 64" xml:space="preserve">
<path d="M54.227,12.611c-0.338-0.336-0.736-0.505-1.196-0.505c-0.229,0-0.712,0.188-1.446,0.559
	c-0.735,0.372-1.515,0.786-2.336,1.248c-0.823,0.459-1.797,0.875-2.921,1.247c-1.123,0.371-2.163,0.559-3.12,0.559
	c-0.884,0-1.664-0.168-2.336-0.505c-2.229-1.044-4.168-1.823-5.814-2.337c-1.646-0.513-3.416-0.771-5.311-0.771
	c-3.272,0-6.999,1.064-11.177,3.188c-0.862,0.43-1.48,0.763-1.88,1.007l-0.397-2.911c0.897-0.779,1.476-1.914,1.476-3.195
	c0-2.347-1.902-4.249-4.249-4.249c-2.347,0-4.249,1.902-4.249,4.249c0,1.531,0.818,2.862,2.032,3.61l5.74,42.09
	c0.171,1.253,1.243,2.162,2.474,2.162c0.112,0,0.226-0.007,0.341-0.022c1.368-0.188,2.326-1.447,2.139-2.815L19.69,38.303
	c4.186-2.077,7.807-3.124,10.853-3.124c1.293,0,2.554,0.193,3.783,0.583c1.23,0.391,2.253,0.815,3.067,1.274
	c0.814,0.46,1.775,0.886,2.88,1.274c1.107,0.39,2.2,0.585,3.279,0.585c2.726,0,5.991-1.027,9.796-3.08
	c0.478-0.248,0.828-0.492,1.049-0.731c0.221-0.239,0.332-0.579,0.332-1.021V13.806C54.729,13.347,54.562,12.948,54.227,12.611z"/>
</svg>
