<?xml version="1.0" encoding="utf-8"?>
<!-- Generator: Adobe Illustrator 17.0.0, SVG Export Plug-In . SVG Version: 6.00 Build 0)  -->
<!DOCTYPE svg PUBLIC "-//W3C//DTD SVG 1.1//EN" "http://www.w3.org/Graphics/SVG/1.1/DTD/svg11.dtd">
<svg version="1.1" id="Layer_1" xmlns="http://www.w3.org/2000/svg" xmlns:xlink="http://www.w3.org/1999/xlink" x="0px" y="0px"
	 width="64px" height="64px" viewBox="0 0 64 64" enable-background="new 0 0 64 64" xml:space="preserve">
<g>
	<path d="M28.674,36.114c-0.161-0.107-0.326-0.221-0.499-0.339c-0.503-0.155-1.037-0.235-1.584-0.242h-0.066
		c-2.514,0-4.718,1.521-4.718,3.257c0,1.889,1.889,3.367,4.299,3.367c3.179,0,4.79-1.096,4.79-3.256
		c0-0.205-0.024-0.417-0.075-0.629C30.606,37.432,29.837,36.909,28.674,36.114z"/>
	<path d="M26.893,29.526c0.002,0,0.002,0,0.002,0c0.601,0,1.108-0.237,1.501-0.687c0.616-0.702,0.889-1.854,0.727-3.077
		c-0.285-2.186-1.848-4.006-3.479-4.053l-0.065-0.002c-0.577,0-1.092,0.238-1.483,0.686c-0.607,0.693-0.864,1.791-0.705,3.012
		c0.286,2.184,1.882,4.071,3.479,4.121H26.893z"/>
	<path d="M32,7.174C18.311,7.174,7.174,18.311,7.174,32c0,13.689,11.137,24.826,24.826,24.826c13.689,0,24.826-11.137,24.826-24.826
		C56.826,18.311,45.689,7.174,32,7.174z M29.138,44.089c-0.938,0.271-1.953,0.408-3.018,0.408c-1.186,0-2.326-0.136-3.389-0.405
		c-2.057-0.519-3.577-1.503-4.287-2.771c-0.306-0.548-0.461-1.131-0.461-1.738c0-0.623,0.149-1.255,0.443-1.881
		c1.127-2.402,4.098-4.017,7.389-4.017c0.033,0,0.064,0,0.094,0c-0.267-0.47-0.396-0.958-0.396-1.471
		c0-0.255,0.034-0.515,0.102-0.78c-3.452-0.078-6.035-2.606-6.035-5.939c0-2.353,1.881-4.646,4.571-5.572
		c0.805-0.278,1.626-0.42,2.433-0.42h7.382c0.251,0,0.473,0.163,0.552,0.402c0.078,0.238-0.008,0.5-0.212,0.648l-1.651,1.195
		c-0.098,0.07-0.217,0.108-0.34,0.108h-0.592c0.763,0.915,1.211,2.22,1.211,3.685c0,1.617-0.819,3.146-2.307,4.311
		c-1.15,0.896-1.195,1.143-1.195,1.654c0.014,0.281,0.815,1.198,1.699,1.823c2.058,1.456,2.825,2.885,2.825,5.269
		C33.955,41.087,32.064,43.239,29.138,44.089z M45.809,31.427c0,0.32-0.261,0.58-0.58,0.58h-4.196v4.197
		c0,0.321-0.26,0.58-0.578,0.58h-1.195c-0.322,0-0.582-0.259-0.582-0.58v-4.197h-4.194c-0.32,0-0.58-0.258-0.58-0.58v-1.193
		c0-0.32,0.26-0.582,0.58-0.582h4.194v-4.193c0-0.321,0.26-0.58,0.582-0.58h1.195c0.318,0,0.578,0.259,0.578,0.58v4.193h4.196
		c0.319,0,0.58,0.26,0.58,0.58V31.427z"/>
</g>
</svg>
