<?xml version="1.0" encoding="utf-8"?>
<!-- Generator: Adobe Illustrator 17.0.0, SVG Export Plug-In . SVG Version: 6.00 Build 0)  -->
<!DOCTYPE svg PUBLIC "-//W3C//DTD SVG 1.1//EN" "http://www.w3.org/Graphics/SVG/1.1/DTD/svg11.dtd">
<svg version="1.1" id="Layer_1" xmlns="http://www.w3.org/2000/svg" xmlns:xlink="http://www.w3.org/1999/xlink" x="0px" y="0px"
	 width="64px" height="64px" viewBox="0 0 64 64" enable-background="new 0 0 64 64" xml:space="preserve">
<g>
	<path d="M20.954,42.215c-0.972-0.524-1.334-1.738-0.81-2.71c0.524-0.973,1.737-1.335,2.71-0.81c2.293,1.238,4.84,1.988,7.448,2.218
		c0.128-2.522,0.524-4.706,0.904-6.288h-5.163v-2c0-6.043,4.117-16.491,5.887-20.706H11.999c-2.2,0-4,1.8-4,4v32.162
		c0,2.2,1.8,4,4,4h19.895c-0.892-2.433-1.365-4.862-1.543-7.148C27.062,44.699,23.843,43.775,20.954,42.215z M20.186,22.763
		c0-0.949,0.77-1.719,1.719-1.719c0.949,0,1.719,0.769,1.719,1.719v2.5c0,0.949-0.769,1.719-1.719,1.719
		c-0.949,0-1.719-0.77-1.719-1.719V22.763z"/>
	<path d="M52.001,11.919H36.284c-0.672,1.534-5.213,12.064-6.093,18.706h6.563l-1.012,2.701c-0.019,0.052-1.15,3.201-1.412,7.525
		c2.527-0.307,4.977-1.105,7.188-2.362c0.96-0.547,2.182-0.21,2.727,0.75c0.546,0.96,0.21,2.181-0.75,2.727
		c-2.801,1.593-5.919,2.571-9.127,2.899c0.175,2.045,0.605,4.201,1.446,6.328c0.116,0.292,0.15,0.595,0.127,0.889h16.058
		c2.2,0,4-1.8,4-4V15.919C56.001,13.719,54.201,11.919,52.001,11.919z M44.227,25.294c0,0.949-0.77,1.719-1.719,1.719
		c-0.949,0-1.719-0.77-1.719-1.719v-2.5c0-0.949,0.769-1.719,1.719-1.719c0.949,0,1.719,0.77,1.719,1.719V25.294z"/>
</g>
</svg>
