<?xml version="1.0" encoding="utf-8"?>
<!-- Generator: Adobe Illustrator 17.0.0, SVG Export Plug-In . SVG Version: 6.00 Build 0)  -->
<!DOCTYPE svg PUBLIC "-//W3C//DTD SVG 1.1//EN" "http://www.w3.org/Graphics/SVG/1.1/DTD/svg11.dtd">
<svg version="1.1" id="Layer_1" xmlns="http://www.w3.org/2000/svg" xmlns:xlink="http://www.w3.org/1999/xlink" x="0px" y="0px"
	 width="64px" height="64px" viewBox="0 0 64 64" enable-background="new 0 0 64 64" xml:space="preserve">
<g>
	<path d="M35.803,21.71c-2.881,0-5.59,1.145-7.63,3.226l-0.973,0.993l-0.975-0.993c-2.038-2.081-4.748-3.226-7.628-3.226
		c-2.819,0-5.454,1.104-7.421,3.109C7.06,29.018,7.109,35.905,11.29,40.167l14.915,15.214c0.275,0.279,0.635,0.419,0.997,0.419
		c0.36,0,0.719-0.14,0.995-0.419l14.916-15.214c4.178-4.264,4.227-11.148,0.108-15.348C41.255,22.814,38.621,21.71,35.803,21.71z
		 M19.879,28.102c-2.867,0-5.2,2.333-5.2,5.2c0,0.66-0.535,1.196-1.196,1.196s-1.196-0.536-1.196-1.196
		c0-4.186,3.405-7.591,7.591-7.591c0.661,0,1.196,0.535,1.196,1.196S20.54,28.102,19.879,28.102z"/>
	<path d="M52.909,11.222c-1.91-1.947-4.47-3.021-7.208-3.021c-2.799,0-5.431,1.113-7.412,3.134L37.343,12.3l-0.946-0.966
		C34.417,9.313,31.784,8.2,28.986,8.2c-2.739,0-5.299,1.074-7.21,3.021c-2.264,2.309-3.229,5.455-2.905,8.501
		c1.462,0.031,2.883,0.306,4.217,0.814c-0.677-2.248-0.167-4.769,1.543-6.513c1.154-1.176,2.701-1.823,4.355-1.823
		c1.715,0,3.332,0.687,4.554,1.933l0.946,0.966l2.859,2.918l2.857-2.919l0.943-0.963c1.223-1.247,2.841-1.934,4.556-1.934
		c1.654,0,3.2,0.647,4.352,1.822c2.487,2.536,2.439,6.712-0.107,9.309l-3.089,3.151c0.706,1.376,1.137,2.86,1.314,4.373l4.631-4.723
		C56.862,21.99,56.91,15.302,52.909,11.222z"/>
</g>
</svg>
