<?xml version="1.0" encoding="utf-8"?>
<!-- Generator: Adobe Illustrator 17.0.0, SVG Export Plug-In . SVG Version: 6.00 Build 0)  -->
<!DOCTYPE svg PUBLIC "-//W3C//DTD SVG 1.1//EN" "http://www.w3.org/Graphics/SVG/1.1/DTD/svg11.dtd">
<svg version="1.1" id="Layer_1" xmlns="http://www.w3.org/2000/svg" xmlns:xlink="http://www.w3.org/1999/xlink" x="0px" y="0px"
	 width="64px" height="64px" viewBox="0 0 64 64" enable-background="new 0 0 64 64" xml:space="preserve">
<g>
	<path d="M40.001,36.254c0,3.299-2.673,5.971-5.97,5.971H29.97c-3.297,0-5.97-2.672-5.97-5.971H8v17c0,2.209,1.791,4,4,4h40
		c2.209,0,4-1.791,4-4v-17H40.001z"/>
	<path d="M31.916,6.746l-7.608,7.452c-0.747,0.733-0.506,1.327,0.543,1.327h4.565v15.221c0,1.381,1.119,2.5,2.5,2.5
		s2.5-1.119,2.5-2.5V15.525h4.565c1.05,0,1.291-0.595,0.542-1.327L31.916,6.746z"/>
</g>
</svg>
