<?xml version="1.0" encoding="utf-8"?>
<!-- Generator: Adobe Illustrator 17.0.0, SVG Export Plug-In . SVG Version: 6.00 Build 0)  -->
<!DOCTYPE svg PUBLIC "-//W3C//DTD SVG 1.1//EN" "http://www.w3.org/Graphics/SVG/1.1/DTD/svg11.dtd">
<svg version="1.1" id="Layer_1" xmlns="http://www.w3.org/2000/svg" xmlns:xlink="http://www.w3.org/1999/xlink" x="0px" y="0px"
	 width="64px" height="64px" viewBox="0 0 64 64" enable-background="new 0 0 64 64" xml:space="preserve">
<g>
	<path d="M53.331,20.819L49,17.123H15l-4.331,3.696C10.3,21.229,10,22.009,10,22.562v28c0,0.552,0.3,1.333,0.669,1.743l2.661,2.953
		C13.7,55.668,14.448,56,15,56h34c0.552,0,1.3-0.333,1.669-0.743l2.661-2.953c0.37-0.41,0.67-1.19,0.67-1.742v-28
		C54,22.009,53.7,21.229,53.331,20.819z M16.475,21.123h31.05L50,23.235v9.808H14v-9.808L16.475,21.123z"/>
	<path d="M48.912,9c0-0.552-0.448-1-1-1h-32c-0.552,0-1,0.448-1,1v5.727h34V9z"/>
</g>
</svg>
