<?xml version="1.0" encoding="iso-8859-1"?>
<!-- Generator: Adobe Illustrator 16.0.3, SVG Export Plug-In . SVG Version: 6.00 Build 0)  -->
<!DOCTYPE svg PUBLIC "-//W3C//DTD SVG 1.1//EN" "http://www.w3.org/Graphics/SVG/1.1/DTD/svg11.dtd">
<svg version="1.1" id="Layer_1" xmlns="http://www.w3.org/2000/svg" xmlns:xlink="http://www.w3.org/1999/xlink" x="0px" y="0px"
	 width="64px" height="64px" viewBox="0 0 64 64" style="enable-background:new 0 0 64 64;" xml:space="preserve">
<g>
	<path d="M11.028,45.416h41.943c1.658,0,2.996-1.342,2.996-2.996V12.46c0-2.206-1.787-3.994-3.992-3.994H12.026
		c-2.206,0-3.993,1.788-3.993,3.994V42.42C8.033,44.074,9.375,45.416,11.028,45.416z M13.033,13.466h37.934v26.95H13.033V13.466z"/>
	<path d="M57.854,47.252H6.147c-0.553,0-1,0.447-1,1c0,0.973,0,2.48,0,3.701c0,1.979,2.009,3.58,4.486,3.58h44.734
		c2.477,0,4.486-1.602,4.486-3.58v-3.701C58.854,47.699,58.406,47.252,57.854,47.252z M38.238,52.393H25.761c-0.552,0-1-0.447-1-1
		s0.448-1,1-1h12.477c0.553,0,1,0.447,1,1S38.791,52.393,38.238,52.393z"/>
</g>
<g>
</g>
<g>
</g>
<g>
</g>
<g>
</g>
<g>
</g>
<g>
</g>
</svg>
