<?xml version="1.0" encoding="utf-8"?>
<!-- Generator: Adobe Illustrator 17.0.0, SVG Export Plug-In . SVG Version: 6.00 Build 0)  -->
<!DOCTYPE svg PUBLIC "-//W3C//DTD SVG 1.1//EN" "http://www.w3.org/Graphics/SVG/1.1/DTD/svg11.dtd">
<svg version="1.1" id="Layer_1" xmlns="http://www.w3.org/2000/svg" xmlns:xlink="http://www.w3.org/1999/xlink" x="0px" y="0px"
	 width="64px" height="64px" viewBox="0 0 64 64" enable-background="new 0 0 64 64" xml:space="preserve">
<g>
	<path d="M59.073,44.19l-10.363-4.49l-14.917,5.967c-0.537,0.214-1.165,0.321-1.793,0.321c-0.627,0-1.254-0.106-1.79-0.32
		l-14.921-5.968L4.927,44.19c-0.472,0.204-0.467,0.525,0.01,0.716l26.199,10.479c0.477,0.191,1.251,0.191,1.729,0l26.199-10.479
		C59.54,44.715,59.545,44.394,59.073,44.19z"/>
	<path d="M59.073,32.088l-10.364-4.491l-14.916,5.966c-0.536,0.215-1.165,0.322-1.792,0.322c-0.628,0-1.256-0.107-1.793-0.321
		l-14.918-5.967L4.927,32.088c-0.472,0.204-0.467,0.525,0.01,0.716l26.199,10.479c0.477,0.191,1.251,0.191,1.729,0l26.199-10.479
		C59.54,32.613,59.545,32.293,59.073,32.088z"/>
	<path d="M4.937,20.702l13.662,5.465l12.537,5.015c0.477,0.191,1.251,0.191,1.729,0l12.541-5.016l13.658-5.463
		c0.477-0.191,0.482-0.511,0.01-0.716L32.854,8.625c-0.472-0.204-1.237-0.204-1.708,0L4.927,19.986
		C4.455,20.191,4.46,20.511,4.937,20.702z"/>
</g>
</svg>
