<?xml version="1.0" encoding="utf-8"?>
<!-- Generator: Adobe Illustrator 17.0.0, SVG Export Plug-In . SVG Version: 6.00 Build 0)  -->
<!DOCTYPE svg PUBLIC "-//W3C//DTD SVG 1.1//EN" "http://www.w3.org/Graphics/SVG/1.1/DTD/svg11.dtd">
<svg version="1.1" id="Layer_1" xmlns="http://www.w3.org/2000/svg" xmlns:xlink="http://www.w3.org/1999/xlink" x="0px" y="0px"
	 width="64px" height="64px" viewBox="0 0 64 64" enable-background="new 0 0 64 64" xml:space="preserve">
<g>
	<path d="M25.03,51.915c0,2.258,1.872,4.089,4.182,4.089h5.576c2.31,0,4.182-1.831,4.182-4.089v-1.922H25.03V51.915z"/>
	<path d="M44.204,31.789c1.789-2.493,2.735-5.405,2.735-8.422c0-8.078-6.702-14.649-14.939-14.649
		c-8.238,0-14.939,6.572-14.939,14.649c0,2.87,0.858,5.655,2.484,8.062c0.075,0.136,0.152,0.26,0.225,0.354
		c2.772,3.871,3.329,5.135,3.329,5.921v2.8h-0.743c-0.689,0-1.245,0.26-1.245,1.085v5.33c0,0.824,0.557,1.248,1.245,1.248h19.289
		c0.689,0,1.245-0.424,1.245-1.248v-5.33c0-0.825-0.557-1.085-1.245-1.085H40.9v-2.8C40.9,37.043,41.155,36.042,44.204,31.789z"/>
</g>
</svg>
