<?xml version="1.0" encoding="utf-8"?>
<!-- Generator: Adobe Illustrator 17.0.0, SVG Export Plug-In . SVG Version: 6.00 Build 0)  -->
<!DOCTYPE svg PUBLIC "-//W3C//DTD SVG 1.1//EN" "http://www.w3.org/Graphics/SVG/1.1/DTD/svg11.dtd">
<svg version="1.1" id="Layer_1" xmlns="http://www.w3.org/2000/svg" xmlns:xlink="http://www.w3.org/1999/xlink" x="0px" y="0px"
	 width="64px" height="64px" viewBox="0 0 64 64" enable-background="new 0 0 64 64" xml:space="preserve">
<g>
	<path d="M52.409,11.591c-2.227-2.227-5.146-3.341-8.066-3.341c-2.919,0-5.838,1.114-8.066,3.341
		c-4.454,4.454-4.454,11.677,0,16.131c2.227,2.227,5.146,3.341,8.066,3.341c2.919,0,5.838-1.114,8.066-3.341
		C56.863,23.268,56.863,16.046,52.409,11.591z"/>
	<path d="M30.411,23.248L8.896,47.41c-0.9,1.011-0.854,2.606,0.103,3.563l1.132,1.132l-0.723,0.723
		c-0.477,0.477-0.477,1.256,0,1.733l0.108,0.108c0.477,0.477,1.256,0.477,1.733,0l0.723-0.723L13.027,55
		c0.957,0.957,2.552,1.003,3.563,0.103l24.155-21.508c-2.469-0.633-4.739-1.902-6.589-3.752
		C32.268,27.955,31.029,25.665,30.411,23.248z M29.27,37.518l-5.145,5.145c-0.77,0.77-2.018,0.77-2.787,0s-0.77-2.018,0-2.787
		l5.145-5.145c0.77-0.77,2.018-0.77,2.787,0S30.04,36.748,29.27,37.518z"/>
</g>
</svg>
