<?xml version="1.0" encoding="utf-8"?>
<!-- Generator: Adobe Illustrator 17.0.0, SVG Export Plug-In . SVG Version: 6.00 Build 0)  -->
<!DOCTYPE svg PUBLIC "-//W3C//DTD SVG 1.1//EN" "http://www.w3.org/Graphics/SVG/1.1/DTD/svg11.dtd">
<svg version="1.1" id="Layer_1" xmlns="http://www.w3.org/2000/svg" xmlns:xlink="http://www.w3.org/1999/xlink" x="0px" y="0px"
	 width="64px" height="64px" viewBox="0 0 64 64" enable-background="new 0 0 64 64" xml:space="preserve">
<g>
	<path d="M27.41,16.754h-0.703c-0.824,0-1.491,0.612-1.491,1.368v5.794h3.686v-5.794C28.901,17.367,28.234,16.754,27.41,16.754z"/>
	<path d="M37.292,16.754h-0.704c-0.823,0-1.49,0.612-1.49,1.368v5.794h3.685v-5.794C38.783,17.367,38.116,16.754,37.292,16.754z"/>
	<path d="M32,6.621c-14.313,0-25.957,11.644-25.957,25.957c0,6.91,2.684,13.413,7.558,18.311c2.886,2.9,6.458,5.102,10.329,6.366
		c0.258,0.085,0.52,0.125,0.777,0.125c1.052,0,2.031-0.67,2.376-1.725c0.429-1.313-0.288-2.724-1.6-3.152
		c-3.123-1.021-6.006-2.799-8.337-5.142c-3.935-3.954-6.102-9.204-6.102-14.783c0-11.556,9.401-20.957,20.957-20.957
		s20.957,9.401,20.957,20.957c0,5.6-2.178,10.859-6.134,14.816c-1.518,1.364-5.286,4.104-7.548,4.104
		c-1.162,0-2.031-0.366-2.737-1.151c-1.789-1.993-2.181-6.029-2.165-8.839c4.339-0.219,7.793-3.796,7.793-8.19v-7.78H21.833v7.78
		c0,4.307,3.318,7.833,7.537,8.177c-0.026,3.35,0.444,8.84,3.441,12.184c1.652,1.845,3.888,2.819,6.465,2.819
		c4.836,0,10.341-4.885,10.952-5.441l0.081-0.076c4.932-4.908,7.648-11.443,7.648-18.403C57.957,18.265,46.313,6.621,32,6.621z"/>
</g>
</svg>
