<?xml version="1.0" encoding="utf-8"?>
<!-- Generator: Adobe Illustrator 17.0.0, SVG Export Plug-In . SVG Version: 6.00 Build 0)  -->
<!DOCTYPE svg PUBLIC "-//W3C//DTD SVG 1.1//EN" "http://www.w3.org/Graphics/SVG/1.1/DTD/svg11.dtd">
<svg version="1.1" id="Layer_1" xmlns="http://www.w3.org/2000/svg" xmlns:xlink="http://www.w3.org/1999/xlink" x="0px" y="0px"
	 width="64px" height="64px" viewBox="0 0 64 64" enable-background="new 0 0 64 64" xml:space="preserve">
<g>
	<path d="M28.813,9.684h6.373c0.44,0,0.797-0.447,0.797-1V6.119c0-1.105-0.714-1.444-1.594-1.444H29.61
		c-0.88,0-1.594,0.34-1.594,1.444v2.564C28.017,9.236,28.373,9.684,28.813,9.684z"/>
	<path d="M37.983,7.777v0.906c0,1.654-1.255,3-2.797,3h-6.373c-1.542,0-2.797-1.346-2.797-3V7.777H12v1v35.396c0,2.209,1.791,4,4,4
		h10.911l-7.523,6.865c-0.816,0.745-0.874,2.01-0.129,2.826c0.395,0.432,0.936,0.651,1.478,0.651c0.481,0,0.964-0.173,1.348-0.522
		L30,50.77v6.555c0,1.104,0.896,2,2,2s2-0.896,2-2v-6.873l8.22,7.543c0.818,0.745,2.083,0.684,2.825-0.134
		c0.743-0.816,0.684-2.082-0.134-2.825l-7.485-6.862H48c2.209,0,4-1.791,4-4V8.777v-1H37.983z M48,44.174H16V17.681h32V44.174z"/>
</g>
</svg>
