<?xml version="1.0" encoding="utf-8"?>
<!-- Generator: Adobe Illustrator 17.0.0, SVG Export Plug-In . SVG Version: 6.00 Build 0)  -->
<!DOCTYPE svg PUBLIC "-//W3C//DTD SVG 1.1//EN" "http://www.w3.org/Graphics/SVG/1.1/DTD/svg11.dtd">
<svg version="1.1" id="Layer_1" xmlns="http://www.w3.org/2000/svg" xmlns:xlink="http://www.w3.org/1999/xlink" x="0px" y="0px"
	 width="64px" height="64px" viewBox="0 0 64 64" enable-background="new 0 0 64 64" xml:space="preserve">
<g>
	<path d="M31.867,34.85c5.836,0,10.964-4.742,10.563-10.564c-0.198-2.894-0.921-4.828-1.846-6.322
		c-1.588,2.502-4.013,3.828-4.013,3.828c2.09-6.048-9.845-9.963-1.637-15.94c-0.177,0.097-2.159,1.197-4.569,3.12
		c-5.529,5.402,3.385,7.865-1.288,14.31c0,0-2.474-2.017-3.039-4.47c-0.525-2.285-0.139-4.476-0.139-4.476s-1.559,0.783-2.509,2.476
		c-1.253,2.228-2.088,4.74-2.088,7.475C21.3,30.12,26.029,34.85,31.867,34.85z"/>
	<path d="M48.724,36.898H15.276c-1.456,0-2.636,1.075-2.636,2.401c0,0.676,0,3.719,0,3.719h1.105h1.105
		c2.157,8.194,8.957,14.184,17.027,14.184c8.07,0,14.87-5.99,17.027-14.184h1.229h1.229v-3.719
		C51.361,37.973,50.181,36.898,48.724,36.898z"/>
</g>
</svg>
