<?xml version="1.0" encoding="utf-8"?>
<!-- Generator: Adobe Illustrator 17.0.0, SVG Export Plug-In . SVG Version: 6.00 Build 0)  -->
<!DOCTYPE svg PUBLIC "-//W3C//DTD SVG 1.1//EN" "http://www.w3.org/Graphics/SVG/1.1/DTD/svg11.dtd">
<svg version="1.1" id="Layer_1" xmlns="http://www.w3.org/2000/svg" xmlns:xlink="http://www.w3.org/1999/xlink" x="0px" y="0px"
	 width="64px" height="64px" viewBox="0 0 64 64" enable-background="new 0 0 64 64" xml:space="preserve">
<g>
	<path d="M28.641,12.411h6.834c0.659,0,1.199-0.54,1.199-1.199V9.333c0-0.659-0.54-1.199-1.199-1.199h-6.834
		c-0.659,0-1.199,0.54-1.199,1.199v1.879C27.441,11.871,27.981,12.411,28.641,12.411z"/>
	<path d="M32,13.971c-5.797,0-11.049,2.369-14.846,6.188l4.554,3.288c2.745-2.479,6.368-4.003,10.35-4.003
		c8.533,0,15.475,6.942,15.475,15.475s-6.941,15.475-15.475,15.475s-15.475-6.941-15.475-15.475c0-3.775,1.362-7.235,3.617-9.924
		l-3.42-4.423c-3.539,3.753-5.726,8.794-5.726,14.347c0,11.551,9.396,20.948,20.946,20.948s20.946-9.397,20.946-20.948
		C52.946,23.368,43.55,13.971,32,13.971z"/>
	<path d="M32.158,38.364c-1.06,0-1.994-0.508-2.602-1.283l-0.006,0.008l-7.569-9.789c-1.609,2.122-2.575,4.756-2.575,7.618
		c0,6.976,5.675,12.65,12.651,12.65s12.65-5.675,12.65-12.65s-5.675-12.651-12.65-12.651c-3.037,0-5.827,1.077-8.01,2.868
		l9.818,7.088l-0.006,0.008c0.961,0.578,1.609,1.621,1.609,2.824C35.469,36.882,33.988,38.364,32.158,38.364z"/>
</g>
</svg>
