<?xml version="1.0" encoding="utf-8"?>
<!-- Generator: Adobe Illustrator 17.0.0, SVG Export Plug-In . SVG Version: 6.00 Build 0)  -->
<!DOCTYPE svg PUBLIC "-//W3C//DTD SVG 1.1//EN" "http://www.w3.org/Graphics/SVG/1.1/DTD/svg11.dtd">
<svg version="1.1" id="Layer_1" xmlns="http://www.w3.org/2000/svg" xmlns:xlink="http://www.w3.org/1999/xlink" x="0px" y="0px"
	 width="64px" height="64px" viewBox="0 0 64 64" enable-background="new 0 0 64 64" xml:space="preserve">
<g>
	<path d="M18.156,41.208c-2.756,0-4.988,2.234-4.988,4.99s2.232,4.988,4.988,4.988c2.757,0,4.989-2.232,4.989-4.988
		S20.913,41.208,18.156,41.208z M18.156,47.856c-0.914,0-1.657-0.742-1.657-1.657c0-0.917,0.743-1.659,1.657-1.659
		c0.917,0,1.66,0.742,1.66,1.659C19.816,47.114,19.073,47.856,18.156,47.856z"/>
	<path d="M46.177,41.208c-2.755,0-4.988,2.234-4.988,4.99s2.233,4.988,4.988,4.988c2.757,0,4.989-2.232,4.989-4.988
		S48.934,41.208,46.177,41.208z M46.177,47.856c-0.915,0-1.658-0.742-1.658-1.657c0-0.917,0.743-1.659,1.658-1.659
		c0.916,0,1.659,0.742,1.659,1.659C47.836,47.114,47.093,47.856,46.177,47.856z"/>
	<path d="M56.347,40.598h-0.342V28.209c0-0.565-0.277-1.387-0.618-1.836l-5.667-7.451c-0.342-0.448-1.077-0.813-1.643-0.813h-9.211
		v-4.273c0-0.566-0.457-1.023-1.023-1.023H12.279c-2.261,0-4.092,1.831-4.092,4.091v23.694H7.653c-0.552,0-1,0.447-1,1v3.577
		c0,0.564,0.458,1.023,1.022,1.023h3.492c0-3.854,3.135-6.989,6.988-6.989c3.854,0,6.989,3.135,6.989,6.989h14.044
		c0-3.854,3.135-6.989,6.988-6.989c3.854,0,6.989,3.135,6.989,6.989h3.157c0.566,0,1.023-0.459,1.023-1.023v-3.577
		C57.347,41.045,56.9,40.598,56.347,40.598z M41.462,27.955v-5.977h4.258c0.538,0,1.236,0.35,1.559,0.781l3.807,5.195H41.462z"/>
</g>
</svg>
