<?xml version="1.0" encoding="utf-8"?>
<!-- Generator: Adobe Illustrator 17.0.0, SVG Export Plug-In . SVG Version: 6.00 Build 0)  -->
<!DOCTYPE svg PUBLIC "-//W3C//DTD SVG 1.1//EN" "http://www.w3.org/Graphics/SVG/1.1/DTD/svg11.dtd">
<svg version="1.1" id="Layer_1" xmlns="http://www.w3.org/2000/svg" xmlns:xlink="http://www.w3.org/1999/xlink" x="0px" y="0px"
	 width="64px" height="64px" viewBox="0 0 64 64" enable-background="new 0 0 64 64" xml:space="preserve">
<path d="M32,7.174C18.311,7.174,7.174,18.311,7.174,32c0,13.689,11.137,24.826,24.826,24.826c13.689,0,24.826-11.137,24.826-24.826
	C56.826,18.311,45.689,7.174,32,7.174z M40.392,43.833c-1.151,0.542-2.196,0.926-3.133,1.143c-0.936,0.217-1.945,0.329-3.033,0.329
	c-1.234,0-1.963-0.156-2.909-0.467c-0.949-0.313-1.758-0.76-2.427-1.333c-0.672-0.577-1.134-1.191-1.393-1.839
	c-0.259-0.651-0.389-1.593-0.389-2.828v-9.466H23.44v-3.824c1.06-0.344,2.289-0.837,3.044-1.48c0.758-0.645,1.365-1.416,1.82-2.318
	c0.461-0.899,0.775-2.048,0.948-3.438h3.839v6.241h6.241v4.82h-6.241v6.92c0,1.567-0.021,2.471,0.146,2.914
	c0.165,0.441,0.578,0.9,1.027,1.164c0.6,0.359,1.28,0.538,2.048,0.538c1.367,0,2.727-0.443,4.079-1.332V43.833z"/>
</svg>
