<?xml version="1.0" encoding="utf-8"?>
<!-- Generator: Adobe Illustrator 17.0.0, SVG Export Plug-In . SVG Version: 6.00 Build 0)  -->
<!DOCTYPE svg PUBLIC "-//W3C//DTD SVG 1.1//EN" "http://www.w3.org/Graphics/SVG/1.1/DTD/svg11.dtd">
<svg version="1.1" id="Layer_1" xmlns="http://www.w3.org/2000/svg" xmlns:xlink="http://www.w3.org/1999/xlink" x="0px" y="0px"
	 width="64px" height="64px" viewBox="0 0 64 64" enable-background="new 0 0 64 64" xml:space="preserve">
<g>
	<path d="M31.729,5.621L21.206,16.145c-1.048,1.024-0.815,1.746,0.649,1.746h5.873l-0.001,12.788c0,2.209,1.79,4,4,4c0,0,0,0,0,0
		c2.209,0,4-1.791,4-4l0.001-12.789h5.876c1.462,0.001,1.693-0.723,0.646-1.747L31.729,5.621z"/>
	<path d="M54.648,31.391h-6.049c-0.553,0-1,0.447-1,1V50.33H16.401V32.391c0-0.553-0.447-1-1-1H9.352c-0.553,0-1,0.447-1,1v20.464
		c0,3.046,2.479,5.524,5.524,5.524h36.247c3.046,0,5.524-2.478,5.524-5.524V32.391C55.648,31.838,55.201,31.391,54.648,31.391z"/>
</g>
</svg>
