<?xml version="1.0" encoding="iso-8859-1"?>
<!-- Generator: Adobe Illustrator 16.0.3, SVG Export Plug-In . SVG Version: 6.00 Build 0)  -->
<!DOCTYPE svg PUBLIC "-//W3C//DTD SVG 1.1//EN" "http://www.w3.org/Graphics/SVG/1.1/DTD/svg11.dtd">
<svg version="1.1" id="Layer_1" xmlns="http://www.w3.org/2000/svg" xmlns:xlink="http://www.w3.org/1999/xlink" x="0px" y="0px"
	 width="64px" height="64px" viewBox="0 0 64 64" style="enable-background:new 0 0 64 64;" xml:space="preserve">
<path d="M32,7.173C18.311,7.173,7.174,18.311,7.174,32c0,13.69,11.137,24.827,24.826,24.827c13.689,0,24.826-11.137,24.826-24.827
	C56.826,18.311,45.689,7.173,32,7.173z M46.314,45.682c0-0.574,0-0.98,0-0.98c0-3.385-3.912-4.621-6.005-5.516
	c-0.758-0.324-2.187-1.01-3.654-1.727c-0.496-0.242-0.942-0.887-0.998-1.436l-0.162-1.605c1.122-1.045,2.133-2.5,2.304-4.122h0.253
	c0.398,0,0.773-0.298,0.832-0.663l0.397-2.453c0.053-0.524-0.442-0.842-0.841-0.842c0.009-0.052,0.018-0.105,0.025-0.149
	c0.051-0.295,0.082-0.58,0.101-0.857c0.026-0.223,0.046-0.454,0.055-0.693c0.042-1.158-0.154-2.171-0.478-2.738
	c-0.33-0.793-0.831-1.563-1.528-2.223c-1.939-1.836-4.188-2.551-6.106-1.075c-1.306-0.226-2.858,0.371-3.979,1.684
	c-0.612,0.717-0.993,1.537-1.156,2.344c-0.146,0.503-0.243,1.112-0.267,1.771c-0.026,0.733,0.046,1.404,0.181,1.947
	c-0.382,0.024-0.764,0.338-0.764,0.833l0.396,2.453c0.059,0.365,0.434,0.663,0.832,0.663h0.227c0.36,1.754,1.292,3.194,2.323,4.198
	l-0.156,1.551c-0.056,0.549-0.502,1.193-0.998,1.438c-1.418,0.693-2.815,1.359-3.651,1.703c-1.97,0.811-6.006,2.131-6.006,5.516
	v0.766c-3.288-3.541-5.316-8.266-5.316-13.467c0-10.932,8.894-19.826,19.826-19.826c10.933,0,19.826,8.894,19.826,19.826
	C51.826,37.305,49.72,42.119,46.314,45.682z"/>
<g>
</g>
<g>
</g>
<g>
</g>
<g>
</g>
<g>
</g>
<g>
</g>
</svg>
